<svg xmlns="http://www.w3.org/2000/svg" width="50.008" height="64.048" viewBox="0 0 50.008 64.048"><defs><style>.a{fill:#b53471;}</style></defs><g transform="translate(0.001 0)"><path class="a" d="M127.75,275.252c-7.353,0-11.03-3.636-11.03-8.18,0-3.636.919-5.454,4.6-10.907,1.682-2.5,2.345-6.05,2.6-8.18H119.06s-.208,6.217-2.757,10c-3.677,5.454-4.6,7.271-4.6,10.907,0,4.545,3.677,8.18,11.03,8.18a13.581,13.581,0,0,0,7.758-2.007A19.2,19.2,0,0,1,127.75,275.252Zm0,0" transform="translate(-97.734 -213.962)"/><path d="M49.956,34.724,41.433,10.157a.94.94,0,0,0-1.776.617l8.09,23.318h-7.94L33.175,1.88h3.211l1.9,5.014a.94.94,0,1,0,1.758-.667L37.914.606A.939.939,0,0,0,37.035,0H12.97a.94.94,0,0,0-.886.627L.051,34.719a.949.949,0,0,0,.886,1.253H19.761a17.855,17.855,0,0,1-1.995,5.589c-3.782,6.189-4.734,8.309-4.734,12.523,0,6.053,4.7,9.965,11.97,9.965s11.97-3.911,11.97-9.965c0-4.214-.951-6.334-4.734-12.523a17.862,17.862,0,0,1-2-5.589H41.109v9.3a2.945,2.945,0,1,0,1.88,0v-9.3h6.079a.949.949,0,0,0,.888-1.248ZM42.049,49.132a1.065,1.065,0,1,1,1.066-1.065A1.066,1.066,0,0,1,42.049,49.132ZM37.887,34.092h-7L28.521,1.88h2.734ZM26.636,1.88,29,34.092H21L23.369,1.88ZM12.118,34.092,18.75,1.88h2.734L19.116,34.092ZM13.635,1.88h3.2L10.2,34.092H2.266Zm21.458,52.2c0,4.987-3.866,8.084-10.09,8.084s-10.09-3.1-10.09-8.084c0-3.83.9-5.724,4.458-11.542a19.9,19.9,0,0,0,2.307-6.569h6.649a19.9,19.9,0,0,0,2.307,6.569c3.555,5.818,4.458,7.712,4.458,11.542Zm0,0" transform="translate(0)"/></g></svg>