<svg xmlns="http://www.w3.org/2000/svg" width="52.76" height="59.76" viewBox="0 0 52.76 59.76"><defs><style>.a,.d{fill:#b53471;}.b{fill:#b53471;}.c{fill:#b53471;}.d{opacity:0.08;}.e{fill:#b53471;}</style></defs><g transform="translate(-29.984)"><g transform="translate(30.95 21.353)"><path class="a" d="M408.009,183.534l-7.567,2.856v4.341l8.784-3.231Z" transform="translate(-358.399 -183.534)"/><path class="a" d="M39.287,183.534l7.567,2.856v4.341L38.07,187.5Z" transform="translate(-38.07 -183.534)"/></g><g transform="translate(36.168 22.93)"><path class="b" d="M81.722,196.912l2.6.981v4.342l-2.6-.956Z" transform="translate(-81.722 -196.912)"/><path class="b" d="M410.048,196.912l-2.6.981v4.342l2.6-.956Z" transform="translate(-369.785 -196.912)"/></g><path class="c" d="M210.28,8.084H198.365a9.181,9.181,0,0,0-1.058.061,7.15,7.15,0,0,0,14.031,0A9.2,9.2,0,0,0,210.28,8.084Z" transform="translate(-147.959 -7.118)"/><path class="d" d="M193.294,168.574h3.25v3.938H177.865v-3.938h12.093" transform="translate(-130.84 -148.931)"/><path class="e" d="M234.5,5.6h-5.217a9.183,9.183,0,0,1,1.058.061,7.162,7.162,0,0,1-4.407,5.277,7.15,7.15,0,0,0,9.624-5.276A9.154,9.154,0,0,0,234.5,5.6Z" transform="translate(-173.195 -4.93)"/><path class="a" d="M187.738,169.116v-1.427a1.546,1.546,0,0,1,1.546-1.546h-2.576a1.546,1.546,0,0,0-1.546,1.546v1.427a1.546,1.546,0,0,0,1.546,1.546h2.576A1.546,1.546,0,0,1,187.738,169.116Z" transform="translate(-137.102 -146.788)"/><path d="M82.7,25.018l-.32-1.045L77.951,9.534l0-.008a6.372,6.372,0,0,0-2.724-3.39l-.018-.011-8.878-5.1A7.323,7.323,0,0,0,62.837.023L62.711.015,62.553.008C62.429,0,62.305,0,62.181,0H50.547c-.125,0-.248,0-.372.008l-.158.007-.126.008A7.32,7.32,0,0,0,46.4,1.03l-8.878,5.1-.018.011a6.369,6.369,0,0,0-2.725,3.39l0,.007L30.471,23.568l-.445,1.45a.943.943,0,0,0,.576,1.162l7.96,2.928V58.816a.943.943,0,0,0,.944.944H73.223a.943.943,0,0,0,.944-.944V40.354a.944.944,0,1,0-1.887,0V57.872H40.448v-38.2a.944.944,0,1,0-1.887,0v3.171l-5.283-1.994,3.3-10.762,0-.006a4.421,4.421,0,0,1,1.889-2.327l8.9-5.108a.717.717,0,0,0,.066-.042,4.647,4.647,0,0,1,1.384-.528,7.94,7.94,0,0,0,7.545,5.5,7.94,7.94,0,0,0,7.545-5.5,4.668,4.668,0,0,1,1.376.522c.024.017.049.033.074.047l8.9,5.108a4.422,4.422,0,0,1,1.889,2.327l0,.006,3.3,10.761-5.283,1.994V19.676a.944.944,0,0,0-1.887,0V37.209a.944.944,0,1,0,1.887,0v-8.1l7.96-2.928a.944.944,0,0,0,.576-1.162Zm-44.141-.155V27.1l-6.47-2.38.632-2.059Zm17.8-19.17a6.051,6.051,0,0,1-5.612-3.807H61.976A6.051,6.051,0,0,1,56.364,5.694ZM80,22.659l.632,2.059-6.47,2.38V24.863Z"/><path d="M182.84,162.423a.966.966,0,0,0,0-1.933H170.747a.966.966,0,0,0-.966.966v3.938a.966.966,0,0,0,.966.966h18.678a.966.966,0,0,0,.966-.966v-3.938a.966.966,0,0,0-.966-.966h-3.25a.966.966,0,1,0,0,1.933h2.283v2.005H171.714v-2.005Z" transform="translate(-123.723 -141.806)"/></g></svg>