<svg xmlns="http://www.w3.org/2000/svg" width="65.443" height="50.075" viewBox="0 0 65.443 50.075"><path d="M62.852,34.078c1.206-2.508,3.541-8.514,1.1-13.375-1.786-3.555-5.708-5.693-11.658-6.354A30.614,30.614,0,0,0,36.389,17a26.573,26.573,0,0,0-4.324-7.929A23.371,23.371,0,0,0,24.57,2.83,26.346,26.346,0,0,0,12.231,0,10.265,10.265,0,0,0,3.517,4.058C.649,7.894-.282,14.3.75,23.1A81.584,81.584,0,0,0,2.824,34a4.034,4.034,0,0,0,1.21,7.883H8.2v7.236a.96.96,0,0,0,.961.961h3.074a.961.961,0,0,0,.932-.727l1.867-7.469H40.363a.961.961,0,1,0,0-1.921H4.034a2.113,2.113,0,0,1,0-4.226H61.409a2.113,2.113,0,0,1,0,4.226H45.016a.961.961,0,0,0,0,1.921h5.4l1.867,7.469a.961.961,0,0,0,.932.727h3.074a.96.96,0,0,0,.961-.961V41.878h4.162a4.034,4.034,0,0,0,1.443-7.8Zm-49.8,7.8-1.569,6.275H10.118V41.878ZM4.765,33.81c-.987-3.69-5.256-21.187.291-28.6a8.337,8.337,0,0,1,7.174-3.287c7.736,0,13.887,2.788,18.282,8.285A24.013,24.013,0,0,1,34.86,18.6a.971.971,0,0,0,1.411.615,28.8,28.8,0,0,1,15.811-2.953c5.259.584,8.674,2.368,10.151,5.3,2.252,4.475-.511,10.525-1.4,12.25Zm50.56,14.344H53.962l-1.569-6.275h2.932Zm0,0" transform="translate(0 0)"/></svg>