<svg xmlns="http://www.w3.org/2000/svg" width="56.527" height="56.988" viewBox="0 0 56.527 56.988"><defs><style>.a{fill:#b53471;}</style></defs><g transform="translate(-0.004 -0.176)"><g transform="translate(0.891 0.176)"><path class="a" d="M214.155,9.288A10.689,10.689,0,0,1,218.382.767c-.2-.152-.4-.3-.615-.437a.939.939,0,0,0-1.029,0,10.708,10.708,0,0,0,0,17.917.939.939,0,0,0,1.029,0c.211-.138.415-.285.615-.437A10.689,10.689,0,0,1,214.155,9.288Z" transform="translate(-189.182 -0.176)"/><path class="a" d="M214.155,349.711a10.69,10.69,0,0,1,4.227-8.521c-.2-.152-.4-.3-.615-.437a.939.939,0,0,0-1.029,0,10.708,10.708,0,0,0,0,17.917.939.939,0,0,0,1.029,0c.211-.138.415-.285.615-.437A10.689,10.689,0,0,1,214.155,349.711Z" transform="translate(-189.182 -302.683)"/><path class="a" d="M82.868,80.4a10.7,10.7,0,0,1-2.911-9.758.939.939,0,0,1,.728-.728q.525-.109,1.058-.164a10.776,10.776,0,0,0-3.317.164.939.939,0,0,0-.728.728A10.706,10.706,0,0,0,89.309,83.474,10.657,10.657,0,0,1,82.868,80.4Z" transform="translate(-69.732 -61.948)"/><path class="a" d="M323.583,321.116a10.7,10.7,0,0,1-2.911-9.758.939.939,0,0,1,.728-.728q.525-.109,1.058-.164a10.774,10.774,0,0,0-3.317.164.939.939,0,0,0-.728.728,10.706,10.706,0,0,0,11.611,12.833A10.658,10.658,0,0,1,323.583,321.116Z" transform="translate(-283.636 -275.853)"/><path class="a" d="M10.378,209.976a.939.939,0,0,1,0-1.029,10.706,10.706,0,0,1,7.829-4.782,10.811,10.811,0,0,0-1.13-.06,10.7,10.7,0,0,0-8.958,4.842.939.939,0,0,0,0,1.029,10.7,10.7,0,0,0,8.958,4.842,10.809,10.809,0,0,0,1.13-.06A10.706,10.706,0,0,1,10.378,209.976Z" transform="translate(-7.965 -181.391)"/><path class="a" d="M350.8,209.976a.939.939,0,0,1,0-1.029,10.706,10.706,0,0,1,7.829-4.782,10.811,10.811,0,0,0-1.13-.06,10.7,10.7,0,0,0-8.958,4.842.939.939,0,0,0,0,1.029,10.7,10.7,0,0,0,8.958,4.842,10.809,10.809,0,0,0,1.13-.06A10.706,10.706,0,0,1,350.8,209.976Z" transform="translate(-310.472 -181.391)"/><path class="a" d="M80.685,324.029a.939.939,0,0,1-.728-.728,10.705,10.705,0,0,1,9.352-12.833A10.706,10.706,0,0,0,77.7,323.3a.939.939,0,0,0,.728.728,10.779,10.779,0,0,0,3.317.164C81.389,324.156,81.035,324.1,80.685,324.029Z" transform="translate(-69.732 -275.856)"/><path class="a" d="M321.4,83.314a.939.939,0,0,1-.728-.728,10.705,10.705,0,0,1,9.352-12.833,10.706,10.706,0,0,0-11.611,12.833.939.939,0,0,0,.728.728,10.78,10.78,0,0,0,3.318.164Q321.927,83.422,321.4,83.314Z" transform="translate(-283.637 -61.951)"/></g><path d="M194.79,191.009h.617v1.949h-2.15a.847.847,0,1,0,0,1.695h2.15V196.6h-.617a.847.847,0,1,0,0,1.695h.617v.617a.847.847,0,0,0,1.695,0v-.617h1.949v2.15a.847.847,0,1,0,1.695,0v-2.15h1.949v.617a.847.847,0,0,0,1.695,0v-.617H205a.847.847,0,0,0,0-1.695h-.617v-1.949h2.15a.847.847,0,0,0,0-1.695h-2.15v-1.949h.617a.847.847,0,1,0,0-1.695h-.617V188.7a.847.847,0,0,0-1.695,0v.617h-1.949v-2.15a.847.847,0,1,0-1.695,0v2.15H197.1V188.7a.847.847,0,0,0-1.695,0v.617h-.617a.847.847,0,0,0,0,1.695Zm5.955,0h1.949v1.949h-1.949Zm0,3.643h1.949V196.6h-1.949Zm-3.643-3.643h1.949v1.949H197.1Zm0,3.643h1.949V196.6H197.1Z" transform="translate(-170.976 -165.408)"/><path d="M55.066,33.316a9.856,9.856,0,0,1-14.854-.55H47.88a.847.847,0,1,0,0-1.695H40.213a9.862,9.862,0,0,1,11.375-2.94c.02.008.041.013.061.02a9.84,9.84,0,0,1,3.417,2.371.847.847,0,0,0,1.235-1.16,11.545,11.545,0,0,0-3-2.289,11.536,11.536,0,0,0,2.44-5.2,1.784,1.784,0,0,0-.75-1.81,11.557,11.557,0,0,0-5.4-1.952,11.574,11.574,0,0,0,.26-5.737,1.784,1.784,0,0,0-1.385-1.385,11.572,11.572,0,0,0-5.736.259,11.537,11.537,0,0,0-1.953-5.4,1.784,1.784,0,0,0-1.81-.75,11.538,11.538,0,0,0-5.2,2.44,11.547,11.547,0,0,0-2.289-3,.847.847,0,1,0-1.16,1.235,9.858,9.858,0,0,1-.55,14.854V12.961a.847.847,0,1,0-1.695,0v7.667c-.066-.053-.131-.107-.2-.161q-.227-.193-.441-.4c-.078-.075-.156-.152-.231-.229a9.852,9.852,0,0,1-.923-1.1l-.057-.078a9.857,9.857,0,0,1,1.3-12.89.847.847,0,1,0-1.16-1.235,11.549,11.549,0,0,0-2.289,3,11.536,11.536,0,0,0-5.2-2.44,1.784,1.784,0,0,0-1.81.749,11.537,11.537,0,0,0-1.953,5.4,11.574,11.574,0,0,0-5.736-.259h0a1.784,1.784,0,0,0-1.385,1.385,11.571,11.571,0,0,0,.259,5.736,11.537,11.537,0,0,0-5.4,1.954,1.784,1.784,0,0,0-.75,1.81,11.538,11.538,0,0,0,2.435,5.2A11.572,11.572,0,0,0,.3,30.94,1.783,1.783,0,0,0,.3,32.9a11.571,11.571,0,0,0,4.239,3.873,11.539,11.539,0,0,0-2.435,5.2,1.784,1.784,0,0,0,.75,1.81,11.549,11.549,0,0,0,5.4,1.952,11.574,11.574,0,0,0-.26,5.737,1.784,1.784,0,0,0,1.385,1.385,11.65,11.65,0,0,0,2.368.244,11.533,11.533,0,0,0,3.367-.5,11.537,11.537,0,0,0,1.953,5.4,1.784,1.784,0,0,0,1.81.75,11.537,11.537,0,0,0,5.2-2.435,11.571,11.571,0,0,0,3.873,4.239,1.784,1.784,0,0,0,1.959,0,11.573,11.573,0,0,0,3.873-4.239,11.538,11.538,0,0,0,5.2,2.435,1.784,1.784,0,0,0,1.81-.75,11.535,11.535,0,0,0,1.953-5.4,11.528,11.528,0,0,0,3.367.5,11.658,11.658,0,0,0,2.369-.244,1.784,1.784,0,0,0,1.385-1.385,11.571,11.571,0,0,0-.259-5.735,11.519,11.519,0,0,0,5.4-1.954,1.784,1.784,0,0,0,.749-1.81,11.537,11.537,0,0,0-2.44-5.2,11.55,11.55,0,0,0,3-2.289.847.847,0,0,0-1.235-1.16ZM48.949,19.757a9.847,9.847,0,0,1,5.091,1.7.092.092,0,0,1,.038.091,9.849,9.849,0,0,1-2.395,4.8,11.549,11.549,0,0,0-12.346,3.133A10.632,10.632,0,0,0,38,26.272,11.554,11.554,0,0,0,48.949,19.757Zm-.823-7.112a.093.093,0,0,1,.07.07A9.863,9.863,0,0,1,37.5,24.535l5.422-5.422a.847.847,0,0,0-1.2-1.2l-5.422,5.422A9.861,9.861,0,0,1,48.126,12.645ZM34.484,9.158a9.851,9.851,0,0,1,4.8-2.395.092.092,0,0,1,.091.038,9.85,9.85,0,0,1,1.7,5.091,11.554,11.554,0,0,0-6.514,10.951A10.632,10.632,0,0,0,31.351,21.5,11.552,11.552,0,0,0,34.484,9.158ZM28.912,22.92h.019a9.009,9.009,0,0,1,8.989,8.99v.017a9.009,9.009,0,0,1-8.989,8.99h-.019a9.009,9.009,0,0,1-8.989-8.99V31.91A9.009,9.009,0,0,1,28.912,22.92ZM18.464,6.8a.092.092,0,0,1,.092-.038,9.846,9.846,0,0,1,4.8,2.395A11.546,11.546,0,0,0,26.493,21.5a10.63,10.63,0,0,0-3.219,1.339A11.539,11.539,0,0,0,16.76,11.892,9.846,9.846,0,0,1,18.464,6.8ZM9.648,12.715a.093.093,0,0,1,.07-.07h0A9.861,9.861,0,0,1,21.537,23.336l-5.422-5.422a.847.847,0,1,0-1.2,1.2l5.422,5.422A9.864,9.864,0,0,1,9.648,12.715ZM3.766,21.553a.093.093,0,0,1,.038-.091,9.847,9.847,0,0,1,5.091-1.7,11.557,11.557,0,0,0,10.951,6.514,10.632,10.632,0,0,0-1.339,3.219A11.554,11.554,0,0,0,6.16,26.357,9.849,9.849,0,0,1,3.766,21.553ZM1.714,31.969a.092.092,0,0,1,0-.1h0a9.867,9.867,0,0,1,15.917-.8H9.964a.847.847,0,1,0,0,1.695h7.667A9.867,9.867,0,0,1,1.714,31.969ZM8.894,44.081a9.847,9.847,0,0,1-5.091-1.7.092.092,0,0,1-.038-.091,9.847,9.847,0,0,1,2.395-4.8,11.558,11.558,0,0,0,12.346-3.133,10.63,10.63,0,0,0,1.339,3.219A11.556,11.556,0,0,0,8.894,44.081ZM11.74,51.4a9.965,9.965,0,0,1-2.022-.208.093.093,0,0,1-.07-.07A9.862,9.862,0,0,1,20.339,39.3l-5.422,5.422a.847.847,0,1,0,1.2,1.2L21.537,40.5A9.86,9.86,0,0,1,11.74,51.4Zm11.62,3.279a9.85,9.85,0,0,1-4.8,2.395.092.092,0,0,1-.092-.038,9.848,9.848,0,0,1-1.7-5.091A11.559,11.559,0,0,0,23.274,41a10.631,10.631,0,0,0,3.219,1.339A11.555,11.555,0,0,0,23.36,54.681Zm5.611,4.447a.093.093,0,0,1-.1,0,9.865,9.865,0,0,1-.993-15.756c.064-.055.13-.108.2-.161v7.667a.847.847,0,0,0,1.695,0V43.21A9.861,9.861,0,0,1,28.971,59.127Zm10.408-2.09a.093.093,0,0,1-.092.038,9.848,9.848,0,0,1-4.8-2.395A11.556,11.556,0,0,0,31.35,42.335,10.631,10.631,0,0,0,34.569,41a11.549,11.549,0,0,0,6.514,10.951A9.847,9.847,0,0,1,39.38,57.038ZM48.2,51.123a.093.093,0,0,1-.07.07A9.86,9.86,0,0,1,36.306,40.5c5.848,5.848,5.537,5.67,6.021,5.67a.848.848,0,0,0,.6-1.446L37.5,39.3A9.865,9.865,0,0,1,48.2,51.123Zm5.882-8.838a.093.093,0,0,1-.038.092,9.847,9.847,0,0,1-5.091,1.7A11.557,11.557,0,0,0,38,37.567a10.632,10.632,0,0,0,1.339-3.219,11.56,11.56,0,0,0,12.346,3.133A9.849,9.849,0,0,1,54.078,42.286Z" transform="translate(0 -3.673)"/></g></svg>