<svg xmlns="http://www.w3.org/2000/svg" width="30.59" height="60.555" viewBox="0 0 30.59 60.555"><defs><style>.a{fill:#b53471;}.b{fill:#fff;}</style></defs><g transform="translate(-116.287 0)"><path class="a" d="M141.751,246.42H131.287v26.874h10.464Zm-6.6,23.975a.966.966,0,0,1-1.933,0V257.049a.966.966,0,0,1,1.933,0Zm0-17.21a.966.966,0,0,1-1.933,0v-3.865a.966.966,0,0,1,1.933,0Z" transform="translate(-13.067 -214.671)"/><path d="M129.649,231.42h-12.4a.966.966,0,0,0-.966.966v28.806a.966.966,0,0,0,.966.966h12.4a.966.966,0,0,0,.966-.966V232.386A.966.966,0,0,0,129.649,231.42Zm-11.43,1.933h10.464v26.874H118.22Z" transform="translate(0 -201.604)"/><path class="b" d="M147.253,261.42a.966.966,0,0,0-.966.966v3.865a.966.966,0,1,0,1.933,0v-3.865A.966.966,0,0,0,147.253,261.42Z" transform="translate(-26.135 -227.739)"/><path class="b" d="M147.253,321.42a.966.966,0,0,0-.966.966v13.345a.966.966,0,1,0,1.933,0V322.386A.966.966,0,0,0,147.253,321.42Z" transform="translate(-26.135 -280.008)"/><path d="M255.862,33.681h-.212V21.275a.966.966,0,0,0-.591-.891V8.37c0-3.287-2.488-6.763-4.891-8.229a.966.966,0,0,0-1.007,0c-2.4,1.465-4.886,4.939-4.891,8.22,0,0,0,.006,0,.01V20.384a.966.966,0,0,0-.591.891V33.681h-.213a.966.966,0,0,0-.966.966V59.588a.966.966,0,0,0,.966.966h12.4a.966.966,0,0,0,.966-.966V34.648A.966.966,0,0,0,255.862,33.681Zm-6.2-31.546c1.754,1.331,3.462,3.964,3.462,6.235a3.44,3.44,0,0,1-1.952,3.113.966.966,0,1,0,.845,1.738,5.477,5.477,0,0,0,1.107-.717v7.8H246.2V12.5a5.476,5.476,0,0,0,1.107.717.966.966,0,0,0,1.291-.446.981.981,0,0,0,.04-.1.966.966,0,0,0-.487-1.2A3.439,3.439,0,0,1,246.2,8.371C246.2,6.1,247.911,3.466,249.664,2.136ZM254.9,35.614V58.622H244.433V35.614Zm-9.285-13.372h8.106v11.44h-8.106Z" transform="translate(-109.952)"/></g></svg>