<svg xmlns="http://www.w3.org/2000/svg" width="69" height="66" viewBox="0 0 69 66"><defs><style>.a,.d{fill:#05ce7c;}.a{stroke:rgba(0,0,0,0);}.b{fill:none;stroke-miterlimit:10;}.c,.d{stroke:none;}</style></defs><g transform="translate(-0.5 -1.5)"><path class="a" d="M30,64a1,1,0,1,1,1,1A1,1,0,0,1,30,64ZM1.707,63.006a1,1,0,0,1,0-1.415L20.092,43.207a1,1,0,0,1,1.415,1.414L3.121,63.006a1,1,0,0,1-1.414,0ZM46,61V60H45a1,1,0,0,1,0-2h1V57a1,1,0,1,1,2,0v.991h1a1,1,0,0,1,0,2H48v1a1,1,0,1,1-2,0ZM20,60a1,1,0,1,1,1,1A1,1,0,0,1,20,60Zm40-6a1,1,0,1,1,1,1A1,1,0,0,1,60,54Zm3-10V43H62a1,1,0,0,1,0-2h1V40a1,1,0,1,1,2,0v.991h1a1,1,0,0,1,0,2H65v1a1,1,0,1,1-2,0ZM0,44a1,1,0,1,1,1,1A1,1,0,0,1,0,44ZM30,33a4,4,0,1,1,4,4A4.005,4.005,0,0,1,30,33Zm2,0a2,2,0,1,0,2-2A2,2,0,0,0,32,33ZM4,32a1,1,0,1,1,1,1A1,1,0,0,1,4,32Zm56-7a1,1,0,1,1,1,1A1,1,0,0,1,60,25ZM4,20V19H3a1,1,0,0,1,0-2H4V16a1,1,0,1,1,2,0v.992H7a1,1,0,0,1,0,2H6v1a1,1,0,1,1-2,0Zm62-1a1,1,0,1,1,1,1A1,1,0,0,1,66,19ZM14,15a1,1,0,1,1,1,1A1,1,0,0,1,14,15Zm34-4a1,1,0,1,1,1,1A1,1,0,0,1,48,11Zm11,0V10H58a1,1,0,0,1,0-2h1V7a1,1,0,1,1,2,0v.991h1a1,1,0,0,1,0,2H61v1a1,1,0,1,1-2,0ZM29,7V6H28a1,1,0,0,1,0-2h1V3a1,1,0,1,1,2,0v.991h1a1,1,0,0,1,0,2H31V7a1,1,0,1,1-2,0ZM11,7a1,1,0,1,1,1,1A1,1,0,0,1,11,7ZM42,2a1,1,0,1,1,1,1A1,1,0,0,1,42,2ZM19,1a1,1,0,1,1,1,1A1,1,0,0,1,19,1Z" transform="translate(1 2)"/><g class="b" transform="translate(11 11)"><path class="c" d="M49.58,24.912h0c1-.462,1.005-1.217.005-1.685L39.221,18.374,44.058,8.125h0c.471-1-.014-1.585-1.083-1.31l-11.1,2.86L28.905-1.244h0c-.29-1.065-1.048-1.2-1.693-.306L20.577,7.673l-9.394-6.49h0C10.275.555,9.611.939,9.7,2.039l.922,11.266L-.81,14.3h0c-1.1.1-1.359.806-.578,1.587l8.052,8.054-8.1,8h0c-.785.776-.535,1.522.56,1.665L10.7,35.122V46.711h0c0,1.1.679,1.415,1.515.694l8.257-7.119,6.577,9.265h0c.639.9,1.4.768,1.694-.3l3.035-10.9,11.087,2.929h0c1.067.282,1.556-.3,1.091-1.3L39.184,29.7Z"/><path class="d" d="M 27.4085693359375 46.59967803955078 L 29.85401153564453 37.81798934936523 L 30.38344764709473 35.91677856445313 L 32.29154205322266 36.42086029052734 L 41.19227981567383 38.77227020263672 L 37.37025833129883 30.54265975952148 L 36.52515411376953 28.72297859191895 L 38.34750747680664 27.88364791870117 L 46.64874267578125 24.06035804748535 L 38.37308120727539 20.18480110168457 L 36.55643463134766 19.33404922485352 L 37.41261291503906 17.51995468139648 L 41.28461456298828 9.315889358520508 L 32.37197875976563 11.61174297332764 L 30.46074104309082 12.10406017303467 L 29.94309425354004 10.19954299926758 L 27.55190277099609 1.402013063430786 L 22.20029449462891 8.840743064880371 L 21.05435371398926 10.43360137939453 L 19.43994140625 9.31821346282959 L 11.87533950805664 4.091906547546387 L 12.61622428894043 13.14218997955322 L 12.77863597869873 15.12608337402344 L 10.79553031921387 15.29790687561035 L 1.64745557308197 16.09047698974609 L 8.078517913818359 22.52288436889648 L 9.501259803771973 23.94593048095703 L 8.069530487060547 25.35994338989258 L 1.453173279762268 31.89443016052246 L 10.96124744415283 33.13884735107422 L 12.7017068862915 33.36663818359375 L 12.7017068862915 35.12192916870117 L 12.7017068862915 44.34603500366211 L 19.16780090332031 38.77138900756836 L 20.83234214782715 37.33633041381836 L 22.10456466674805 39.12840270996094 L 27.4085693359375 46.59967803955078 M 27.92518997192383 50.14810562133789 C 27.64436912536621 50.14810562133789 27.33570098876953 49.95198440551758 27.05095291137695 49.55088424682617 L 20.47374153137207 40.28615570068359 L 12.21647167205811 47.40503692626953 C 11.9114875793457 47.66797637939453 11.62752532958984 47.79362106323242 11.38974571228027 47.79362106323242 C 10.97562026977539 47.79362106323242 10.7017068862915 47.41230010986328 10.7017068862915 46.71097946166992 L 10.7017068862915 35.12192916870117 L -0.8802464008331299 33.60608291625977 C -1.974905252456665 33.46280288696289 -2.225834608078003 32.7169189453125 -1.440340518951416 31.94115447998047 L 6.664153575897217 23.93695449829102 L -1.388258099555969 15.88286018371582 C -2.168822765350342 15.10213088989258 -1.909669876098633 14.39115428924561 -0.8097875714302063 14.29587173461914 L 10.62289524078369 13.30536651611328 L 9.700600624084473 2.039072036743164 C 9.639856338500977 1.297109842300415 9.921914100646973 0.8810601830482483 10.39065361022949 0.8810601830482483 C 10.61704635620117 0.8810601830482483 10.88707447052002 0.9782097935676575 11.18289470672607 1.182589650154114 L 20.57678985595703 7.67274284362793 L 27.21255302429199 -1.550963282585144 C 27.49860191345215 -1.948565006256104 27.80690002441406 -2.142694473266602 28.08679580688477 -2.142694473266602 C 28.43777275085449 -2.142694473266602 28.7440357208252 -1.837186217308044 28.90513038635254 -1.244492650032043 L 31.87307167053223 9.674965858459473 L 42.97511672973633 6.815130710601807 C 43.15371704101563 6.769126415252686 43.31586837768555 6.74719762802124 43.46014022827148 6.74719762802124 C 44.17950439453125 6.74719762802124 44.45075607299805 7.2933030128479 44.05826950073242 8.124907493591309 L 39.22129440307617 18.37357711791992 L 49.58559036254883 23.22726058959961 C 50.58538818359375 23.69547271728516 50.58298873901367 24.45029640197754 49.58023452758789 24.91213035583496 L 39.18417739868164 29.70023727416992 L 43.95846939086914 39.98029708862305 C 44.34426879882813 40.81100845336914 44.07353591918945 41.35435485839844 43.36054229736328 41.35433197021484 C 43.21414947509766 41.35432815551758 43.0490608215332 41.33141326904297 42.86723709106445 41.28337860107422 L 31.78070640563965 38.35451889038086 L 28.74523544311523 49.25502395629883 C 28.58102989196777 49.84469223022461 28.2746410369873 50.14810562133789 27.92518997192383 50.14810562133789 Z"/></g></g></svg>